<?xml version="1.0" encoding="UTF-8"?>
<svg id="b" data-name="Ebene 2" xmlns="http://www.w3.org/2000/svg" viewBox="0 0 411.47 130.49">
  <defs>
    <style>
      .d {
        fill: #1d1d1b;
      }
    </style>
  </defs>
  <g id="c" data-name="Ebene 1">
    <g>
      <g>
        <path d="M119.22,0c-23.58,0-39.99,17.9-39.99,39.99s17.9,39.99,39.99,39.99,39.99-17.9,39.99-39.99S141.69,0,119.22,0ZM145.19,44c-3.28,19.81-17.91,34.55-32.43,32.14-14.52-2.4-23.44-21.04-20.16-40.85C95.88,15.48,110.31,1.37,124.84,3.78c14.52,2.4,23.64,20.41,20.35,40.22Z"/>
        <path d="M312,77.79l13.97-.13L292.46,3.61l-1.49-3.3c-.03-.08-.14-.08-.18,0l-6.75,15.37-27.88,62.11,3.17-.04,10.83-23.62h30.93l10.9,23.66ZM271.46,50.93l14.34-31.75,14.03,31.75h-28.37Z"/>
        <path d="M411.46,42.29h-26.86v3.18h13.92c-.94,17.95-9.35,31.16-22.9,31.16-14.93,0-27.03-16.41-27.03-36.64s12.12-35.82,27.03-36.64c7.99-.44,19.97,2.44,26.84,18.98l3.3-1.39c-6.41-15.49-17.38-20.94-30.14-20.94-23.26,0-39.99,17.9-39.99,39.99s17.9,39.99,39.99,39.99c20.22,0,34.36-14.95,35.77-34.51.1-1.35.06-3.18.06-3.18Z"/>
        <path d="M209.74,1.06h-30.24v76.64h0s30.24,0,30.24,0c21.16,0,38.32-17.16,38.32-38.32S230.9,1.06,209.74,1.06ZM199.6,74.54h-7.36V4.23h7.36c19.99,0,35.49,15.55,35.49,35.15s-15.89,35.16-35.49,35.16Z"/>
      </g>
      <g>
        <g>
          <path class="d" d="M119.13,130.22v-18.86h2.05l7.25,11.77-.97-.03,7.33-11.74h1.91v18.86h-2.1v-8.62c0-1.62.03-3.07.08-4.36.05-1.29.15-2.58.3-3.85l.38.75-6.76,10.61h-1.45l-6.57-10.48.3-.89c.14,1.2.24,2.44.3,3.7.05,1.27.08,2.77.08,4.51v8.62h-2.1Z"/>
          <path class="d" d="M146.28,130.22v-18.86h2.05l7.25,11.77-.97-.03,7.33-11.74h1.91v18.86h-2.1v-8.62c0-1.62.03-3.07.08-4.36.05-1.29.15-2.58.3-3.85l.38.75-6.76,10.61h-1.45l-6.57-10.48.3-.89c.14,1.2.24,2.44.3,3.7.05,1.27.08,2.77.08,4.51v8.62h-2.1Z"/>
          <path class="d" d="M181.5,130.49c-1.33,0-2.56-.24-3.68-.71s-2.1-1.15-2.94-2.01c-.83-.86-1.48-1.88-1.94-3.06-.46-1.18-.69-2.46-.69-3.86s.23-2.69.69-3.87c.46-1.18,1.1-2.2,1.94-3.07.84-.87,1.81-1.54,2.94-2.02,1.12-.48,2.35-.71,3.68-.71s2.58.24,3.7.71c1.12.48,2.1,1.15,2.94,2.02.84.87,1.48,1.9,1.94,3.07.46,1.18.69,2.46.69,3.87s-.23,2.66-.69,3.84c-.46,1.18-1.1,2.2-1.94,3.07-.83.87-1.81,1.54-2.94,2.02-1.12.48-2.36.71-3.7.71ZM181.5,128.42c1.02,0,1.97-.18,2.84-.55.87-.37,1.62-.89,2.25-1.58.63-.68,1.12-1.49,1.47-2.41.35-.92.53-1.93.53-3.03s-.18-2.13-.53-3.06c-.35-.92-.84-1.73-1.47-2.41-.63-.68-1.38-1.21-2.25-1.59-.87-.38-1.82-.57-2.84-.57s-1.97.19-2.84.57c-.87.38-1.62.91-2.25,1.59-.63.68-1.11,1.49-1.45,2.41s-.51,1.94-.51,3.06.17,2.11.51,3.03c.34.92.83,1.73,1.45,2.41.63.68,1.38,1.21,2.25,1.58.87.37,1.82.55,2.84.55Z"/>
          <path class="d" d="M212.78,122.44c-.37-.66-.88-1.23-1.52-1.68-.43-.31-.94-.52-1.47-.7.67-.3,1.23-.72,1.66-1.27.59-.74.89-1.64.89-2.68,0-.97-.22-1.81-.65-2.52-.43-.71-1.05-1.26-1.85-1.64s-1.75-.58-2.84-.58h-7.65v18.86h7.92c.92,0,1.75-.13,2.49-.39.75-.26,1.38-.63,1.91-1.12.53-.48.94-1.07,1.23-1.75.29-.68.43-1.44.43-2.29s-.18-1.57-.55-2.24ZM201.45,113.41h5.2c1.11,0,1.98.28,2.6.83.62.56.93,1.29.93,2.21,0,.57-.14,1.09-.43,1.55s-.68.82-1.18,1.08c-.5.26-1.08.39-1.72.39h-5.39v-6.06ZM210.62,126.56c-.33.52-.8.92-1.4,1.2-.6.28-1.31.42-2.11.42h-5.66v-6.65h5.52c.83,0,1.55.14,2.17.4s1.1.65,1.45,1.13.53,1.05.53,1.7c0,.68-.17,1.28-.5,1.8Z"/>
          <path class="d" d="M237.05,130.22v-18.86h2.1v16.81h9.05v2.05h-11.15Z"/>
          <polygon class="d" points="281.37 113.41 281.37 111.36 269.95 111.36 269.95 130.22 281.32 130.22 281.32 128.17 272.05 128.17 272.05 121.55 279.87 121.55 279.87 119.5 272.05 119.5 272.05 113.41 281.37 113.41"/>
          <path class="d" d="M290.11,130.22v-18.86h1.91l12.34,16.32-.38.49c-.05-.29-.1-.72-.12-1.29-.03-.57-.05-1.23-.08-1.95-.03-.73-.05-1.49-.07-2.28-.02-.79-.03-1.56-.04-2.32s-.01-1.44-.01-2.05v-6.92h2.1v18.86h-1.97l-12.28-16.11.32-.57c.05.72.1,1.43.15,2.13.04.7.08,1.37.11,2.02.03.65.05,1.24.07,1.78.02.54.03,1,.04,1.37,0,.38.01.65.01.81v8.57h-2.1Z"/>
        </g>
        <rect class="d" x="105.71" y="111.36" width="2.1" height="18.86"/>
        <rect class="d" x="222.94" y="111.36" width="2.1" height="18.86"/>
        <rect class="d" x="257.07" y="111.36" width="2.1" height="18.86"/>
      </g>
      <path d="M44.01,37.67h-3.16c10.12,0,18.99-8.2,18.99-18.32S51.65,1.04,41.53,1.04H0v76.64h0s44.01.01,44.01.01c11.05,0,20.01-8.96,20.01-20.01s-8.96-20.01-20.01-20.01ZM12.74,4.15h17.82c8.9,0,16.12,6.95,16.12,15.85s-7.22,16.22-16.12,16.22H12.74V4.15ZM33.05,74.54H12.74v-35.68h20.3c9.91,0,17.95,8.13,17.95,18.04s-8.04,17.64-17.95,17.64Z"/>
    </g>
  </g>
</svg>