<svg id="Ebene_1" data-name="Ebene 1" xmlns="http://www.w3.org/2000/svg" viewBox="0 0 261.64 48.56"><defs><style>.cls-1{fill:#007e48;}.cls-2{fill:#929292;}.cls-3{fill:none;stroke:#929292;stroke-miterlimit:10;stroke-width:0.4px;}</style></defs><path class="cls-1" d="M103.79,24.84V9.53L98.52,20.69H95.94L90.54,9.53V24.84H87.06V1.93h3.48l6.69,14.26,6.56-14.26h3.48V24.84Z"/><path class="cls-1" d="M125.42,24.84l-1.58-4.6h-9l-1.58,4.6h-3.7l8.4-22.91h2.8l8.4,22.91Zm-6-17.73-3.57,10.17h7Z"/><path class="cls-1" d="M144.05,24.84l-4.83-9.65h-4.34v9.65H131.4V1.93h8.89c4.34,0,7.11,2.8,7.11,6.7a6,6,0,0,1-4.57,6.08l5.28,10.13ZM140,5.05h-5.15v7.18H140c2.32,0,3.89-1.32,3.89-3.57S142.35,5.05,140,5.05Z"/><path class="cls-1" d="M159.27,5.05V24.84H155.8V5.05h-6.31V1.93h16.09V5.05Z"/><path class="cls-1" d="M181.35,24.84v-10h-9.3v10h-3.48V1.93h3.48v9.78h9.3V1.93h3.47V24.84Z"/><path class="cls-1" d="M203,24.84l-1.57-4.6h-9l-1.58,4.6h-3.7l8.4-22.91h2.8l8.4,22.91ZM197,7.11l-3.58,10.17h7.05Z"/><path class="cls-1" d="M209,24.84V1.93h3.48V21.72h11v3.12Z"/><path class="cls-1" d="M226.5,24.84V1.93h14.64V5.05H230v6.7h9.53v3.09H230v6.88h11.17v3.12Z"/><path class="cls-1" d="M257.58,24.84l-4.83-9.65h-4.34v9.65h-3.48V1.93h8.89c4.34,0,7.11,2.8,7.11,6.7a6,6,0,0,1-4.57,6.08l5.28,10.13Zm-4-19.79h-5.15v7.18h5.15c2.32,0,3.89-1.32,3.89-3.57S255.88,5.05,253.56,5.05Z"/><path class="cls-2" d="M87,46.71V32.85H88V46.71Z"/><path class="cls-2" d="M110.41,46.71V35.28l-4.2,9.48h-1l-4.29-9.48V46.71H99.82V32.85h1.05l4.83,10.69,4.71-10.69h1V46.71Z"/><path class="cls-2" d="M133.86,46.71V35.28l-4.2,9.48h-1l-4.29-9.48V46.71h-1V32.85h1l4.83,10.69,4.71-10.69h1V46.71Z"/><path class="cls-2" d="M154.39,45.41a4.94,4.94,0,0,1-6.93,0c-1.26-1.27-1.28-2.5-1.28-5.63s0-4.36,1.28-5.63a4.94,4.94,0,0,1,6.93,0c1.27,1.27,1.29,2.49,1.29,5.63S155.66,44.14,154.39,45.41Zm-.83-10.67a3.74,3.74,0,0,0-5.26,0c-1,1-1.07,2.06-1.07,5s.08,4,1.07,5a3.77,3.77,0,0,0,5.26,0c1-1,1.07-2.06,1.07-5S154.55,35.73,153.56,34.74Z"/><path class="cls-2" d="M172.2,46.71h-5.26V32.85H172c2.3,0,4,1.32,4,3.62a3.17,3.17,0,0,1-2.16,3.11,3.39,3.39,0,0,1,2.38,3.35C176.27,45.41,174.65,46.71,172.2,46.71Zm-.28-12.93H168v5.38h3.93c1.68,0,3.08-.78,3.08-2.69S173.6,33.78,171.92,33.78Zm.16,6.31H168v5.69h4.09c1.89,0,3.14-1.08,3.14-2.85S174,40.09,172.08,40.09Z"/><path class="cls-2" d="M187.53,46.71V32.85h1.05V46.71Z"/><path class="cls-2" d="M200.38,46.71V32.85h1.05V45.78h7.36v.93Z"/><path class="cls-2" d="M219,46.71V32.85h1.05V46.71Z"/><path class="cls-2" d="M231.9,46.71V32.85h8.41v.93H233v5.47h6.27v.94H233v5.59h7.36v.93Z"/><path class="cls-2" d="M260.12,46.71l-8-12.05V46.71h-1.05V32.85h1.05l8,12v-12h1.05V46.71Z"/><polygon class="cls-1" points="44.86 36.29 44.86 1.85 0 1.85 0 46.71 5.84 46.71 26 24.28 44.86 36.29"/><rect class="cls-1" x="24.83" y="39.58" width="7.13" height="7.13"/><line class="cls-3" x1="65.85" x2="65.85" y2="48.56"/></svg>