<svg id="Ebene_1" data-name="Ebene 1" xmlns="http://www.w3.org/2000/svg" viewBox="0 0 346.91 52.58"><defs><style>.cls-1,.cls-4{fill:none;}.cls-2{fill:#134983;}.cls-3{fill:#929292;}.cls-4{stroke:#929292;stroke-miterlimit:10;stroke-width:0.4px;}</style></defs><polygon class="cls-1" points="44.86 50.17 44.86 39.76 26 27.74 5.84 50.17 30.11 50.17 44.86 50.17"/><path class="cls-2" d="M103.79,29V13.63L98.52,24.8H95.94l-5.4-11.17V29H87.06V6h3.48L97.23,20.3,103.79,6h3.48V29Z" transform="translate(0 -0.18)"/><path class="cls-2" d="M120.4,29.15c-4.67,0-8.21-3.19-8.21-7.92V6h3.48v15c0,3.06,1.86,4.95,4.73,4.95s4.76-1.89,4.76-4.95V6h3.48V21.23C128.64,26,125.06,29.15,120.4,29.15ZM115.47,3.66V.18h3V3.66Zm7,0V.18h3V3.66Z" transform="translate(0 -0.18)"/><path class="cls-2" d="M133.59,29V6h3.48V25.83h11V29Z" transform="translate(0 -0.18)"/><path class="cls-2" d="M151.39,29V6h3.47V25.83h11V29Z" transform="translate(0 -0.18)"/><path class="cls-2" d="M169.18,29V6h14.64V9.16H172.66v6.69h9.52v3.09h-9.52v6.89h11.16V29Z" transform="translate(0 -0.18)"/><path class="cls-2" d="M200.56,29l-4.83-9.65h-4.34V29h-3.48V6h8.88c4.35,0,7.11,2.8,7.11,6.69a6,6,0,0,1-4.57,6.09L204.61,29Zm-4-19.79h-5.14v7.18h5.14c2.32,0,3.9-1.32,3.9-3.57S198.85,9.16,196.53,9.16Z" transform="translate(0 -0.18)"/><path class="cls-2" d="M220.54,21.71v5.41h-3.06V21.71h-5.4V18.65h5.4V13.28h3.06v5.37H226v3.06Z" transform="translate(0 -0.18)"/><path class="cls-2" d="M241.1,29.15c-3.44,0-5.92-.81-8.11-3l2.32-2.28A7.57,7.57,0,0,0,241.17,26c3,0,4.73-1.28,4.73-3.5a3.07,3.07,0,0,0-.9-2.38,4,4,0,0,0-2.51-1l-2.71-.39A7.83,7.83,0,0,1,235.44,17a5.68,5.68,0,0,1-1.67-4.38c0-4,2.89-6.72,7.66-6.72a9.57,9.57,0,0,1,7.11,2.6l-2.22,2.19a6.75,6.75,0,0,0-5-1.77c-2.7,0-4.18,1.55-4.18,3.57a2.73,2.73,0,0,0,.86,2.13,5.18,5.18,0,0,0,2.58,1.06l2.61.39a7.59,7.59,0,0,1,4.28,1.7,6,6,0,0,1,1.86,4.7C249.34,26.64,245.9,29.15,241.1,29.15Z" transform="translate(0 -0.18)"/><path class="cls-2" d="M262,19.94h-5.21v9h-3.48V6H262c4.47,0,7.34,3,7.34,7S266.49,19.94,262,19.94Zm-.19-10.78h-5v7.63h5c2.41,0,4.05-1.39,4.05-3.8S264.24,9.16,261.83,9.16Z" transform="translate(0 -0.18)"/><path class="cls-2" d="M272.9,29V6h14.64V9.16H276.37v6.69h9.53v3.09h-9.53v6.89h11.17V29Z" transform="translate(0 -0.18)"/><path class="cls-2" d="M299,29.15a8.31,8.31,0,0,1-6-2.45c-2.25-2.25-2.22-4.8-2.22-9.2s0-6.95,2.22-9.21a8.34,8.34,0,0,1,6-2.44c4.21,0,7.37,2.47,8.17,7h-3.54a4.74,4.74,0,0,0-8-2.54c-1.13,1.22-1.38,2.54-1.38,7.15s.25,5.92,1.38,7.14a4.76,4.76,0,0,0,8-2.54h3.51A7.91,7.91,0,0,1,299,29.15Z" transform="translate(0 -0.18)"/><path class="cls-2" d="M323.93,29v-10h-9.3V29h-3.47V6h3.47v9.78h9.3V6h3.48V29Z" transform="translate(0 -0.18)"/><path class="cls-2" d="M340.47,9.16V29H337V9.16h-6.31V6h16.09V9.16Z" transform="translate(0 -0.18)"/><text y="-0.18"/><path class="cls-3" d="M87,50.87V37H88V50.87Z" transform="translate(0 -0.18)"/><path class="cls-3" d="M103.71,50.87V39.45l-4.2,9.48H98.45l-4.28-9.48V50.87h-1V37h1L99,47.7,103.71,37h1.05V50.87Z" transform="translate(0 -0.18)"/><path class="cls-3" d="M120.46,50.87V39.45l-4.2,9.48H115.2l-4.28-9.48V50.87h-1V37h1l4.83,10.69L120.46,37h1.05V50.87Z" transform="translate(0 -0.18)"/><path class="cls-3" d="M134.29,49.57a4.94,4.94,0,0,1-6.93,0c-1.26-1.27-1.28-2.49-1.28-5.63s0-4.36,1.28-5.62a4.91,4.91,0,0,1,6.93,0c1.27,1.26,1.29,2.49,1.29,5.62S135.56,48.3,134.29,49.57Zm-.84-10.67a3.75,3.75,0,0,0-5.25,0c-1,1-1.07,2.06-1.07,5S127.2,48,128.2,49a3.75,3.75,0,0,0,5.25,0c1-1,1.08-2.07,1.08-5.05S134.45,39.89,133.45,38.9Z" transform="translate(0 -0.18)"/><path class="cls-3" d="M145.39,50.87h-5.25V37h5.1c2.3,0,4,1.32,4,3.62a3.19,3.19,0,0,1-2.16,3.12,3.37,3.37,0,0,1,2.37,3.35C149.46,49.57,147.85,50.87,145.39,50.87ZM145.12,38h-3.93v5.37h3.93c1.68,0,3.08-.78,3.08-2.69S146.8,38,145.12,38Zm.16,6.3h-4.09v5.69h4.09c1.89,0,3.13-1.07,3.13-2.84S147.17,44.25,145.28,44.25Z" transform="translate(0 -0.18)"/><path class="cls-3" d="M154,50.87V37h1.06V50.87Z" transform="translate(0 -0.18)"/><path class="cls-3" d="M160.18,50.87V37h1V49.94h7.36v.93Z" transform="translate(0 -0.18)"/><path class="cls-3" d="M172.14,50.87V37h1.05V50.87Z" transform="translate(0 -0.18)"/><path class="cls-3" d="M178.29,50.87V37h8.42V38h-7.36v5.47h6.27v.93h-6.27v5.59h7.36v.93Z" transform="translate(0 -0.18)"/><path class="cls-3" d="M199.81,50.87l-8-12v12h-1.05V37h1.05l8,12V37h1.05V50.87Z" transform="translate(0 -0.18)"/><path class="cls-3" d="M222.35,50.87V39.45l-4.21,9.48h-1l-4.28-9.48V50.87h-1.05V37h1.05l4.83,10.69L222.35,37h1.05V50.87Z" transform="translate(0 -0.18)"/><path class="cls-3" d="M236.66,50.87l-1.2-3.36H229l-1.2,3.36h-1.13L231.76,37h.93l5.1,13.86Zm-4.43-12.46-2.91,8.16h5.81Z" transform="translate(0 -0.18)"/><path class="cls-3" d="M250.1,50.87l-8-12v12h-1V37h1l8,12V37h1.06V50.87Z" transform="translate(0 -0.18)"/><path class="cls-3" d="M264.42,50.87l-1.21-3.36h-6.46l-1.21,3.36h-1.13L259.51,37h.94l5.1,13.86ZM260,38.41l-2.9,8.16h5.8Z" transform="translate(0 -0.18)"/><path class="cls-3" d="M276.65,49.39a4.93,4.93,0,0,1-7.1.18c-1.27-1.27-1.29-2.49-1.29-5.63s0-4.36,1.29-5.62A4.86,4.86,0,0,1,273,36.89a5.41,5.41,0,0,1,4.13,1.93l-.7.7A4.39,4.39,0,0,0,273,37.83a3.69,3.69,0,0,0-2.63,1.07c-1,1-1.07,2.06-1.07,5s.08,4.05,1.07,5.05A3.66,3.66,0,0,0,273,50.06a3.71,3.71,0,0,0,2.88-1.35,4,4,0,0,0,.84-2.74V44.72H273v-.93h4.77v2.26A4.49,4.49,0,0,1,276.65,49.39Z" transform="translate(0 -0.18)"/><path class="cls-3" d="M282.24,50.87V37h8.42V38H283.3v5.47h6.27v.93H283.3v5.59h7.36v.93Z" transform="translate(0 -0.18)"/><path class="cls-3" d="M305.3,50.87V39.45l-4.2,9.48h-1.05l-4.29-9.48V50.87h-1.05V37h1.05l4.83,10.69L305.3,37h1.05V50.87Z" transform="translate(0 -0.18)"/><path class="cls-3" d="M311.46,50.87V37h8.41V38h-7.36v5.47h6.27v.93h-6.27v5.59h7.36v.93Z" transform="translate(0 -0.18)"/><path class="cls-3" d="M333,50.87l-8-12v12h-1.05V37H325l8,12V37h1V50.87Z" transform="translate(0 -0.18)"/><path class="cls-3" d="M342.76,38V50.87h-1.05V38h-4.13V37h9.33V38Z" transform="translate(0 -0.18)"/><polygon class="cls-2" points="44.86 40.27 44.86 5.83 0 5.83 0 50.69 5.84 50.69 26 28.26 44.86 40.27"/><rect class="cls-2" x="24.83" y="43.56" width="7.13" height="7.13"/><line class="cls-4" x1="65.85" y1="4.02" x2="65.85" y2="52.58"/></svg>